<svg xmlns="http://www.w3.org/2000/svg" width="261" height="50" viewBox="0 0 261 50" fill="none"><g clip-path="url(#clip0_116_2739)"><path fill-rule="evenodd" clip-rule="evenodd" d="M0 0H49.86V49.86H0V0ZM6.89749 24.9354C6.89749 19.9527 10.9337 15.9165 15.9165 15.9165C20.7861 15.9165 24.7583 19.7885 24.9297 24.6294C25.091 19.7885 29.0632 15.9165 33.9435 15.9165C38.9263 15.9165 42.9625 19.9527 42.9625 24.9354C42.9625 29.9182 38.9263 33.9544 33.9435 33.9544C29.0665 33.9544 25.0962 30.0876 24.93 25.2512C24.7638 30.0876 20.7935 33.9544 15.9165 33.9544C10.9337 33.9544 6.89749 29.9182 6.89749 24.9354ZM12.4568 24.9246C12.4568 23.0207 14.0126 21.4649 15.9165 21.4649C17.3417 21.4649 18.571 22.3353 19.1041 23.5647H21.726C21.1168 20.921 18.7451 18.9518 15.9165 18.9518C12.62 18.9518 9.94371 21.639 9.94371 24.9246C9.94371 28.2101 12.6309 30.8864 15.9165 30.8864C18.7451 30.8864 21.1168 28.9173 21.726 26.2736H19.1041C18.571 27.5138 17.3417 28.3842 15.9165 28.3842C14.0126 28.3842 12.4568 26.8285 12.4568 24.9246ZM28.7106 24.9898L32.5619 28.8411L39.1874 22.2156L37.414 20.4423L32.5619 25.2945L30.4839 23.2165L28.7106 24.9898Z" fill="white"></path><path d="M57.8633 25.0173C57.8633 22.6131 58.3898 20.4748 59.4427 18.6023C60.4957 16.7068 61.9582 15.2388 63.8302 14.1986C65.7255 13.1352 67.8666 12.6035 70.2533 12.6035C73.1783 12.6035 75.682 13.3664 77.7646 14.8921C79.8471 16.4178 81.2394 18.4983 81.9414 21.1336H75.3427C74.8513 20.1165 74.1493 19.3421 73.2368 18.8104C72.3476 18.2787 71.3297 18.0129 70.1831 18.0129C68.3346 18.0129 66.837 18.6486 65.6904 19.92C64.5438 21.1914 63.9706 22.8905 63.9706 25.0173C63.9706 27.144 64.5438 28.8431 65.6904 30.1145C66.837 31.386 68.3346 32.0217 70.1831 32.0217C71.3297 32.0217 72.3476 31.7558 73.2368 31.2241C74.1493 30.6925 74.8513 29.918 75.3427 28.9009H81.9414C81.2394 31.5362 79.8471 33.6167 77.7646 35.1424C75.682 36.645 73.1783 37.3963 70.2533 37.3963C67.8666 37.3963 65.7255 36.8762 63.8302 35.8359C61.9582 34.7726 60.4957 33.3047 59.4427 31.4322C58.3898 29.5597 57.8633 27.4214 57.8633 25.0173Z" fill="white"></path><path d="M97.2695 37.4657C94.9529 37.4657 92.8236 36.934 90.8814 35.8706C88.9626 34.8073 87.43 33.3278 86.2834 31.4322C85.1602 29.5135 84.5986 27.3636 84.5986 24.9826C84.5986 22.6016 85.1602 20.4633 86.2834 18.5677C87.43 16.6721 88.9626 15.1926 90.8814 14.1292C92.8236 13.0659 94.9529 12.5342 97.2695 12.5342C99.586 12.5342 101.704 13.0659 103.623 14.1292C105.565 15.1926 107.086 16.6721 108.186 18.5677C109.309 20.4633 109.87 22.6016 109.87 24.9826C109.87 27.3636 109.309 29.5135 108.186 31.4322C107.063 33.3278 105.542 34.8073 103.623 35.8706C101.704 36.934 99.586 37.4657 97.2695 37.4657ZM97.2695 32.0563C99.235 32.0563 100.803 31.4091 101.973 30.1145C103.167 28.82 103.763 27.1093 103.763 24.9826C103.763 22.8327 103.167 21.1221 101.973 19.8507C100.803 18.5561 99.235 17.9088 97.2695 17.9088C95.2805 17.9088 93.6893 18.5446 92.496 19.816C91.326 21.0874 90.741 22.8096 90.741 24.9826C90.741 27.1325 91.326 28.8547 92.496 30.1492C93.6893 31.4206 95.2805 32.0563 97.2695 32.0563Z" fill="white"></path><path d="M135.252 37.223H129.25L119.212 22.2086V37.223H113.21V12.8809H119.212L129.25 27.9647V12.8809H135.252V37.223Z" fill="white"></path><path d="M148.518 37.4657C146.716 37.4657 145.101 37.1767 143.674 36.5988C142.247 36.0209 141.1 35.1656 140.234 34.0328C139.392 32.9001 138.947 31.5362 138.901 29.9412H145.289C145.382 30.8427 145.698 31.5362 146.236 32.0217C146.774 32.484 147.476 32.7152 148.342 32.7152C149.231 32.7152 149.933 32.5187 150.448 32.1257C150.963 31.7096 151.22 31.1432 151.22 30.4266C151.22 29.8256 151.01 29.3286 150.589 28.9356C150.191 28.5426 149.688 28.219 149.079 27.9647C148.494 27.7104 147.652 27.4214 146.552 27.0978C144.961 26.6123 143.662 26.1269 142.656 25.6414C141.65 25.156 140.784 24.4393 140.059 23.4916C139.333 22.5438 138.971 21.307 138.971 19.7813C138.971 17.5159 139.801 15.7474 141.463 14.476C143.124 13.1815 145.289 12.5342 147.956 12.5342C150.671 12.5342 152.858 13.1815 154.52 14.476C156.181 15.7474 157.07 17.5274 157.187 19.816H150.694C150.647 19.03 150.355 18.4174 149.816 17.9782C149.278 17.5159 148.588 17.2847 147.746 17.2847C147.02 17.2847 146.435 17.4812 145.991 17.8742C145.546 18.244 145.324 18.7873 145.324 19.5039C145.324 20.2899 145.698 20.9025 146.447 21.3417C147.196 21.7809 148.366 22.2548 149.957 22.7634C151.548 23.2951 152.835 23.8036 153.818 24.2891C154.824 24.7745 155.69 25.4796 156.415 26.4043C157.14 27.329 157.503 28.5195 157.503 29.9758C157.503 31.3628 157.14 32.6227 156.415 33.7554C155.713 34.8882 154.684 35.7897 153.326 36.4601C151.969 37.1305 150.366 37.4657 148.518 37.4657Z" fill="white"></path><path d="M167.199 17.6314V22.5553H175.237V27.1325H167.199V32.4725H176.289V37.223H161.197V12.8809H176.289V17.6314H167.199Z" fill="white"></path><path d="M202.228 37.223H196.226L186.188 22.2086V37.223H180.186V12.8809H186.188L196.226 27.9647V12.8809H202.228V37.223Z" fill="white"></path><path d="M224.304 12.8809V17.6314H217.776V37.223H211.774V17.6314H205.245V12.8809H224.304Z" fill="white"></path><path d="M233.704 32.3684H244.304V37.223H226.895V32.7152L237.425 17.7355H226.895V12.8809H244.304V17.3887L233.704 32.3684Z" fill="white"></path><path d="M254.662 37.4658C251.296 37.4658 248.448 34.7389 248.448 31.2329C248.448 27.8568 251.167 25 254.662 25C258.158 25 260.877 27.7269 260.877 31.2329C260.877 34.609 258.029 37.4658 254.662 37.4658ZM254.662 26.0388C251.814 26.0388 249.483 28.3762 249.483 31.2329C249.483 34.0896 251.814 36.427 254.662 36.427C257.511 36.427 259.841 34.0896 259.841 31.2329C259.841 28.3762 257.511 26.0388 254.662 26.0388Z" fill="white"></path><path d="M255.309 29.0251H253.497V31.1027H255.309C255.957 31.1027 256.216 30.7132 256.216 30.0639C256.216 29.4147 255.827 29.0251 255.309 29.0251ZM255.18 27.9863C256.733 27.9863 257.51 28.6356 257.51 30.0639C257.51 30.843 257.122 31.4923 256.345 31.752L257.899 34.0893H256.345L254.921 32.0117H253.367V34.0893H251.943V27.9863H255.18Z" fill="white"></path></g><defs><clipPath id="clip0_116_2739"><rect width="261" height="50" fill="white"></rect></clipPath></defs></svg>